<svg xmlns="http://www.w3.org/2000/svg" viewBox="0 0 292.32 344.72"><defs><style>.cls-1,.cls-2{fill:#e1e0e0;}.cls-1,.cls-16,.cls-2,.cls-3{stroke:#fff;stroke-miterlimit:10;}.cls-1,.cls-16,.cls-2{stroke-width:3px;}.cls-16,.cls-2{opacity:0.98;}.cls-3{fill:#c7b3c6;}.cls-4{fill:#5d5457;}.cls-5{fill:#baa7ad;}.cls-6{fill:#5b4a5b;}.cls-7{fill:#2b3f44;}.cls-8{fill:#786868;}.cls-9{fill:#f2f2f2;}.cls-10{fill:#635d5d;}.cls-11{fill:#6a8891;}.cls-12{fill:#fff;}.cls-13{fill:#6a616a;}.cls-14{fill:#5b544a;}.cls-15{fill:#877c7a;}.cls-16{fill:#3d3d3d;}</style></defs><g id="Capa_2" data-name="Capa 2"><g id="Icons_capa" data-name="Icons capa"><polygon class="cls-1" points="263.14 134.54 263.14 162.8 221.49 194.79 219.65 220.65 290.65 129.65 278.67 92.35 263.14 134.54"/><path class="cls-2" d="M18.69,54.94l28-37.29L36.9,52.21l.48,15.14-23.73,34,12.28,26.22,3.29,24.79L1.65,87.65l13.49-27A36.16,36.16,0,0,1,18.69,54.94Z"/><g id="Me_icon" data-name="Me icon"><path class="cls-3" d="M42.63,190.56l1.7,32.38,6.84,38.73L74,300.4,99,334.58s27.34,15.95,47.85,6.83,45.56-43.29,45.56-43.29L222,245.72l2.28-29.61s2.28,6.83,6.83-2.28c0,0,0-25.06,2.28-27.34,0,0,2.28-31.9,4.56-36.45s11.39-52.41-2.28-79.74-47.84-54.68-68.35-54.68S103.57,8.78,83.07,29.29c0,0-41,34.17-43.29,61.51S42.63,190.56,42.63,190.56Z"/><path class="cls-4" d="M118.35,170.77,116.08,205s-11.4,2.27-13.67,13.67S109.24,230,116.08,230c0,0,4.55,0,6.83,6.83s16-2.28,16-2.28,0-6.83,9.11-6.83c0,0,1.14-3.42,1.14,1.14,0,0,6.84,6.83,9.11-2.28s-6.83-25.06-15.94-22.78c0,0,0-31.9,2.27-36.46,0,0-2.27-27.34-13.67-29.61S118.35,170.77,118.35,170.77Z"/><path class="cls-5" d="M116.19,170.43l-2.28,34.18s-11.39,2.27-13.67,13.67,6.83,11.39,13.67,11.39c0,0,4.55,0,6.83,6.83s16-2.28,16-2.28,0-6.83,9.11-6.83c0,0,4.56,0,4.56,4.56,0,0,4.56,2.27,6.84-6.84s-6.84-25.06-15.95-22.78c0,0,2.14-41.81,4.41-46.37,0,0-2.25-19-13.64-21.32S116.19,170.43,116.19,170.43Z"/><path class="cls-6" d="M94.43,263s11.39,18.23,27.34,15.95,13.19,2.67,20.26.2,23-7,27.58-13.87a214.75,214.75,0,0,1-31.89,2.28C119.49,267.6,94.43,267.6,94.43,263Z"/><path class="cls-6" d="M95.84,260.76s19.1-.43,29.35.93,15.49.92,15.15,0,28.64-.07,28.64-.07-26.7,6-38.1,3.7C130.88,265.32,101.8,265.32,95.84,260.76Z"/><path class="cls-7" d="M48.87,153.68S46.59,140,67.09,140s22.78-2.27,22.78-2.27H108a5.69,5.69,0,0,1,5.45,4l.81,2.67a2.07,2.07,0,0,1-1.75,2.68c-8.61,1-36.95,3.93-40.81,2C67.09,146.85,48.87,153.68,48.87,153.68Z"/><path class="cls-8" d="M62.54,164.35S91,144,112.66,166.63c0,0-2.91,0-2.28,2.28s-5.19,10.18-22,9.65c0,0-9.94,1.74-14.49,1.74,0,0,15.94-2.28,20.5-2.28,0,0,11.39-2.27,11.39-6.83,0,0-34.17,9.11-47.84-2.28Z"/><path class="cls-9" d="M62.54,167.09s6.83-12,25.06-9.56,20.89,9.56,20.89,9.56S83,181.43,62.54,167.09Z"/><path class="cls-10" d="M162.78,174.19s6.83-2.28,15.95,2.28,20.5,2.28,20.5,2.28-12.55,3.41-18.81.57-18.8-4.77-18.8-4.77-10.23,1.92-10.23-9.47c0,0,.43-5.72,3.63-7.42,0,0-5.47,9.26,0,12.89S162.78,174.19,162.78,174.19Z"/><path class="cls-10" d="M206.07,162.8S192.4,151.41,167.34,156c0,0-7.71,4.56-9.55,6.84s7,11.39,27.63,11.39,19.78,2.28,19.78,2.28-6-4.56-10.52-4.56,4.55-6.83,9.11-4.56S206.07,162.8,206.07,162.8Z"/><path class="cls-9" d="M158.22,165.08S171.89,156,181,156s22.78,6.84,22.78,6.84-6.84,9.11-15.95,11.39-22.78-6.84-22.78-6.84Z"/><path class="cls-11" d="M42.61,192.66l-9.69-7.08-4.56-41L23.8,112.68l9.12-27.34L46.59,58,60.26,39.77,80.76,26.1l22.78-11.39,29.62-6.84,18.23,2.28,25.06,2.28,27.34,16,11.39,13.67,18.23,16a96.35,96.35,0,0,0,11.39,4.55s-9.11,0-11.39-2.28,9.11,11.4,9.11,11.4l6.84,25.06s6.83,16,9.11,16c0,0-6.84-4.56-6.84-6.84s2.28,13.67,2.28,13.67l-2.28,16v18.22L240.24,181l-4.55,9.12-3.11,4.65.83-22.88L193.54,157.1,171,149.87l5.39,4.33-12.42-1.65-13.67-6.84,9.11,9.11-13.67-4.55-20.5-11.39-.89,5L107,134.32l-2,3.84-9.36-1.56L96.71,140,85.32,130.9l-9.12-9.11-2.27,4.55-4.56-2.27v4.55l-9.11-4.55,6.83,4.55L55.7,124.07v4.55H51.14l-8.53,21.19Z"/><path class="cls-12" d="M42.61,192.66,32.9,185.6h0v0l-4.14-36.5-.52-4.56L27.57,140l-1.32-9.09L23.61,112.7v-.09l9.06-27.35v0L46.34,57.87v0l0,0L60,39.59l0,0,0,0,20.5-13.69h0L103.4,14.41l0,0h0l29.61-6.85.06,0h.07L144,8.86c3.6.43,7.19,1,10.81,1.23L176.48,12h.09l.08,0L204,28l.06,0,.05.05,11.4,13.66,0,0L233.7,57.66l-.09-.06c1.81.88,3.7,1.68,5.59,2.43s3.81,1.45,5.74,2.09l2.77.92-2.91,0a44.76,44.76,0,0,1-6.84-.56,15.26,15.26,0,0,1-3.38-.91,4.67,4.67,0,0,1-1.56-1l-.13-.12h0l0,0a.37.37,0,0,0,.15,0c.07,0,0,.07.34-.1a.46.46,0,0,0,.16-.38v-.06a.31.31,0,0,0,0-.08h0v0c.06.1.14.21.22.32l.51.67c2.81,3.53,5.72,7,8.61,10.49l.06.08,0,.1,6.85,25.06,0-.07c1.24,2.83,2.53,5.64,3.92,8.4.69,1.37,1.41,2.73,2.19,4,.39.66.8,1.31,1.24,1.91a7.25,7.25,0,0,0,.7.84,1.64,1.64,0,0,0,.61.46l-.27.89a39.87,39.87,0,0,1-4.81-3.79,9.65,9.65,0,0,1-2-2.48,2.19,2.19,0,0,1-.24-.92,1.25,1.25,0,0,1,0-.38.68.68,0,0,1,.19-.27.19.19,0,0,1,.1-.06.43.43,0,0,1,.24,0,.54.54,0,0,1,.33.17.76.76,0,0,1,.13.25c.05.16.08.28.11.41.11.52.19,1,.28,1.51.67,4,1.24,8,1.82,12v.14l-2.29,15.94v18.25l0,.08-7.67,18.38-3.85,9.18-4.47,8.91v.05L232.92,195l-.8,1.19.06-1.43L233,171.9l.25.38-31-11.56-7.76-2.88c-2.59-.94-5.24-1.71-7.86-2.58l-15.77-5,.33-.61,5.38,4.33,1,.78-1.24-.16-12.42-1.67h-.05l0,0L150.1,146l.38-.52,9.11,9.12,1,1-1.29-.43-13.67-4.56h0l0,0L125,139.14l.45-.21-.89,5-.08.42-.37-.2-17.33-9.56.4-.12-2,3.85-.1.18-.21,0-9.36-1.58.32-.36L97,139.93l.3.89-.73-.59-11.39-9.12h0L76,122l.42-.07-2.29,4.56-.11.22-.23-.11-4.55-2.28.36-.22V129l-.35-.17-9.1-4.58.22-.37,6.82,4.57,1.57,1-1.75-.7-11.38-4.59.23-.15v4.71H51.14l.14-.09L42.7,149.84v0Zm0,0-.1-42.85v0L51,128.57l0-.09H55.7l-.16.16v-4.8l.23.09,11.4,4.53-.18.35-6.84-4.54.21-.38,9.13,4.54-.35.21v-5l.36.18L74,126.12l-.34.11L76,121.67l.16-.32.26.26,9.12,9.1,0,0,11.39,9.11-.43.3-1.15-3.41-.14-.45.46.08,9.36,1.56-.3.15,2-3.85.14-.26.26.14,17.34,9.54-.44.21.89-5,.07-.42.38.21L145.85,150l-.06,0,13.67,4.55-.33.53L150,145.94l-1.41-1.41,1.78.89,13.68,6.82-.11,0,12.42,1.65-.26.61-5.4-4.32-1.5-1.2,1.83.58,15.79,5.05c2.62.86,5.27,1.63,7.87,2.57l7.77,2.88,31.06,11.51.27.1v.28L233,194.81l-.75-.25,3.1-4.65,0,0,4.43-8.89,3.84-9.18,7.63-18.37,0,.17V135.39l2.27-15.95v.14c-.58-4-1.16-8-1.84-11.93q-.12-.75-.27-1.47l-.08-.32s0,0,.05.08a.48.48,0,0,0,.31.16.4.4,0,0,0,.23,0l.1,0a.42.42,0,0,0,.16-.24s0,0,0,0a.48.48,0,0,0,0,.12,1.58,1.58,0,0,0,.15.54,8.84,8.84,0,0,0,1.79,2.19,38.1,38.1,0,0,0,4.68,3.68l1.42,1-1.69-.08a1.38,1.38,0,0,1-.81-.3,3.76,3.76,0,0,1-.51-.44,11.2,11.2,0,0,1-.78-1c-.47-.65-.89-1.31-1.3-2-.8-1.35-1.53-2.73-2.23-4.12-1.4-2.78-2.7-5.59-3.94-8.45v-.06l-6.82-25.07.09.18c-2.89-3.49-5.78-7-8.6-10.53l-.52-.69-.27-.38,0-.07,0,0a.69.69,0,0,1,0-.13s0,0,0-.07a.48.48,0,0,1,.17-.39c.32-.19.28-.09.36-.11l.17,0,0,0,.09.07a1.62,1.62,0,0,1,.19.17,3.69,3.69,0,0,0,1.27.81,15.12,15.12,0,0,0,3.17.86,45.39,45.39,0,0,0,6.69.55l-.15.88q-2.91-1-5.78-2.11c-1.91-.77-3.8-1.57-5.66-2.47l-.05,0,0,0-18.21-16,0,0,0,0L203.47,28.64l.11.1-27.33-16,.16.05-21.68-2c-3.62-.28-7.21-.81-10.81-1.24l-10.8-1.36h.12L103.62,15l.07,0L80.9,26.38l0,0L60.42,40l.07-.06L46.81,58.16l0,0L33.14,85.45l0,0L24,112.74v-.09l2.56,18.19,1.28,9.1.64,4.55.5,4.56,4,36.53v0Z"/><path class="cls-7" d="M159.72,134.68l-4.7,3.06.93,4.55,3.77,4.42,11.4-1s14.44-5.7,23.56-3.42S210.92,156,215.33,156c0,0,4.41-2.28,2.13-6.83s-14.54-15.22-20.94-14.45-27.54,0-27.54,0Z"/><path class="cls-13" d="M103.54,238s-16.65-3.44-22,6.25S76.2,267.6,76.2,267.6l9.31-8.24v2.13l6.64-3,0,2.21L99,258.49l6.83-2.28v2.28l2.67-1.07,1.89,3.34,3.92-3.34,2.91,1.07,6.84-2.28a14.28,14.28,0,0,0,1.14,2.37,3.79,3.79,0,0,0,3.27,2.12l2.42-6.77v-9.7s-12.11-3.44-12.89-4.85-7-2-7-2Z"/><path class="cls-13" d="M135.44,251.38l2.45,9.86,6.66-3.15,2.28,2.24,4.56-2.24s-4.8,4.35,1,2.18l5.81-2.18,4.22,2.18,2.62-2.18,5.23-1.78-.68,1.78a3.21,3.21,0,0,1,4.56,0c2.28,2.24,1.65,2.18,1.65,2.18a21.45,21.45,0,0,1,7.85,1c4.17,1.33,1.41-3.57,3.93,0l2.52,3.57.1.51L192,252.2l-6.4-5.3s-2.28-6.58-4.55-5.53-15.66-.11-15.66-.11l-11.68-3.32-6.84-2.24-7.8,3.62-3.59,5.2Z"/><path class="cls-13" d="M117.21,283.55l-4.55,6.83,6.83,4.56,9.12,2.28h0s2.27-3.83,3.41-.78.39,3.06.39,3.06.75-4.56,3-4.56h2.28l4.56-2.28h2.27l2.28-4.56,2.09,3.42-4.37-5.69L136,283.55l-10.78-.78Z"/><circle class="cls-14" cx="84.18" cy="165.49" r="7.97"/><ellipse class="cls-14" cx="182.31" cy="165.08" rx="10.42" ry="9.11"/><path class="cls-15" d="M85.32,159.8c-2.28,0,0,2.28,0,2.28a2.23,2.23,0,0,1,2.28,2.27c0,2.28,2.27,2.28,2.27,0A4.89,4.89,0,0,0,85.32,159.8Z"/><path class="cls-15" d="M181,158.24s6.83,0,6.83,4.56-2.28,0-2.28,0-2.28-4.51-4.55-3.4S181,158.24,181,158.24Z"/><circle class="cls-15" cx="182.15" cy="163.94" r="1.14"/></g><path class="cls-16" d="M47,16.94S60.17-8.44,99.8,5.88s133.28,37.7,133.28,37.7,63,3.31,41.26,68.31c0,0-8,48.92-59.52,27.72S55.56,92.1,55.56,92.1s-32.93-11.21-12-66.71C44.59,22.68,45.75,19.86,47,16.94Z"/><polygon class="cls-1" points="152.44 22.16 153.9 10.38 162.6 7.87 174.65 10.65 173.33 27.95 152.44 22.16"/></g></g></svg>